<svg width="32" height="32" viewBox="0 0 32 32" fill="none" xmlns="http://www.w3.org/2000/svg">
<path d="M29.2746 16C29.2746 8.66839 23.3312 2.72498 15.9996 2.72498C8.66803 2.72498 2.72461 8.66839 2.72461 16C2.72461 23.3316 8.66803 29.275 15.9996 29.275C23.3312 29.275 29.2746 23.3316 29.2746 16Z" fill="#1E2E33"/>
<path d="M22.7948 19.4943L20.8361 17.8662C19.5861 16.6162 17.3579 19.4374 17.3517 19.4437C17.1779 19.6168 15.7817 18.5018 14.6398 17.3606C13.4979 16.2193 12.3836 14.8225 12.5567 14.6487C12.5636 14.6425 15.3848 12.415 14.1342 11.1643L12.5092 9.20557C10.7548 7.67682 5.27918 11.8306 12.6136 19.1674L12.7248 19.2781L12.8361 19.3899C20.1673 26.7243 24.3236 21.2499 22.7948 19.4943Z" fill="white"/>
</svg>
