<svg width="47" height="47" viewBox="0 0 47 47" fill="none" xmlns="http://www.w3.org/2000/svg">
<circle cx="23.5" cy="23.5" r="21.5" fill="#5D8424" stroke="white" stroke-width="4"/>
<path d="M22.732 19.82C22.888 20.168 22.996 20.558 23.056 20.99C23.128 21.41 23.164 21.842 23.164 22.286C23.164 23.774 22.744 25.124 21.904 26.336C21.064 27.536 19.798 28.424 18.106 29C17.734 28.82 17.464 28.556 17.296 28.208C17.14 27.848 17.062 27.452 17.062 27.02C17.458 26.852 17.854 26.624 18.25 26.336C18.658 26.036 18.994 25.688 19.258 25.292C19.534 24.884 19.684 24.44 19.708 23.96C19.456 23.924 19.174 23.876 18.862 23.816C18.55 23.744 18.316 23.642 18.16 23.51C18.064 23.33 17.98 23.066 17.908 22.718C17.836 22.358 17.8 22.022 17.8 21.71C17.8 21.398 17.83 21.05 17.89 20.666C17.962 20.27 18.052 19.988 18.16 19.82C18.4 19.676 18.748 19.556 19.204 19.46C19.66 19.352 20.08 19.298 20.464 19.298C20.848 19.298 21.268 19.346 21.724 19.442C22.18 19.538 22.516 19.664 22.732 19.82ZM30.04 19.82C30.184 20.168 30.286 20.558 30.346 20.99C30.418 21.41 30.454 21.842 30.454 22.286C30.454 23.774 30.034 25.124 29.194 26.336C28.354 27.536 27.088 28.424 25.396 29C25.036 28.82 24.766 28.544 24.586 28.172C24.406 27.788 24.334 27.404 24.37 27.02C24.766 26.852 25.162 26.624 25.558 26.336C25.954 26.036 26.29 25.688 26.566 25.292C26.842 24.884 26.986 24.44 26.998 23.96C26.758 23.924 26.482 23.876 26.17 23.816C25.858 23.744 25.624 23.642 25.468 23.51C25.372 23.33 25.288 23.066 25.216 22.718C25.144 22.358 25.108 22.022 25.108 21.71C25.108 21.398 25.138 21.05 25.198 20.666C25.27 20.27 25.36 19.988 25.468 19.82C25.708 19.676 26.05 19.556 26.494 19.46C26.95 19.352 27.376 19.298 27.772 19.298C28.156 19.298 28.57 19.346 29.014 19.442C29.47 19.538 29.812 19.664 30.04 19.82Z" fill="white"/>
</svg>
