<svg width="73" height="72" viewBox="0 0 73 72" fill="none" xmlns="http://www.w3.org/2000/svg">
<path d="M34.5644 25.6416C35.4903 25.6406 36.3779 25.2724 37.0326 24.6177C37.6872 23.9631 38.0555 23.0754 38.0564 22.1496V12.1716C38.0564 11.2356 37.6928 10.3596 37.034 9.69958C36.7116 9.37285 36.3269 9.11421 35.9027 8.93899C35.4785 8.76378 35.0234 8.67556 34.5644 8.67957C33.6388 8.68085 32.7514 9.0492 32.097 9.70383C31.4426 10.3585 31.0746 11.2459 31.0736 12.1716V19.5756H34.5692C35.2148 19.5756 35.7368 20.0964 35.7368 20.742C35.7333 22.4507 35.3044 24.1317 34.4888 25.6332C34.514 25.6332 34.538 25.6416 34.5644 25.6416ZM44.2484 25.6404C45.0795 25.6397 45.8764 25.3093 46.4641 24.7216C47.0517 24.134 47.3822 23.3371 47.3828 22.506V13.686C47.3819 12.8551 47.0513 12.0585 46.4636 11.4711C45.876 10.8837 45.0793 10.5534 44.2484 10.5528H43.532C42.7011 10.5534 41.9044 10.8837 41.3168 11.4711C40.7291 12.0585 40.3986 12.8551 40.3976 13.686V22.506C40.3982 23.3371 40.7287 24.134 41.3164 24.7216C41.904 25.3093 42.7009 25.6397 43.532 25.6404H44.2484ZM56.7032 22.1472V15.5592C56.7026 14.7281 56.3721 13.9312 55.7845 13.3435C55.1968 12.7558 54.3999 12.4254 53.5688 12.4248H52.8512C52.0205 12.4257 51.2241 12.7561 50.6368 13.3435C50.0494 13.9309 49.719 14.7273 49.718 15.558V22.506C49.7186 23.3369 50.0489 24.1336 50.6363 24.7212C51.2237 25.3088 52.0203 25.6394 52.8512 25.6404H53.5688C54.3999 25.6397 55.1968 25.3093 55.7845 24.7216C56.3721 24.134 56.7026 23.3371 56.7032 22.506V22.1472Z" fill="black"/>
<path d="M52.0424 65.1864V53.904C52.0433 51.9994 52.5184 50.125 53.4248 48.45L55.6028 44.43C56.3228 43.1016 56.7032 41.6004 56.7032 40.0896V26.9736C55.787 27.6231 54.6918 27.9724 53.5688 27.9732H52.8512C51.098 27.9732 49.5512 27.1296 48.5504 25.842C47.5484 27.1296 46.0028 27.9732 44.2484 27.9732H43.532C42.673 27.9712 41.8266 27.7663 41.0619 27.3751C40.2972 26.9839 39.6357 26.4174 39.1316 25.722C38.0636 27.0828 36.4244 27.9744 34.5644 27.9744C34.0244 27.9744 33.5 27.8952 32.996 27.7548C31.9376 28.911 30.632 29.8134 29.1764 30.3948C32.5388 32.1048 35.7368 35.2872 35.7368 40.6548C35.7368 40.9644 35.6137 41.2614 35.3948 41.4804C35.1758 41.6994 34.8788 41.8224 34.5692 41.8224C34.2595 41.8224 33.9625 41.6994 33.7435 41.4804C33.5246 41.2614 33.4016 40.9644 33.4016 40.6548C33.4016 32.31 24.1064 31.1628 23.7116 31.1184C23.4148 31.0853 23.1421 30.9398 22.9493 30.7118C22.7566 30.4837 22.6585 30.1906 22.6753 29.8925C22.692 29.5944 22.8223 29.314 23.0394 29.1091C23.2564 28.9041 23.5438 28.79 23.8424 28.7904H25.3544C29.396 28.7904 32.7512 25.7964 33.3176 21.9084H20.6108C20.6036 21.9084 20.5964 21.9132 20.588 21.9132C20.5796 21.9132 20.5736 21.9084 20.5664 21.9084H19.2824C18.4908 21.9093 17.732 22.2242 17.1723 22.7839C16.6126 23.3436 16.2977 24.1024 16.2968 24.894V34.2108C16.2968 35.0928 16.682 35.9232 17.3552 36.4908L25.4792 43.3584C25.6085 43.4682 25.7124 43.6048 25.7837 43.7587C25.855 43.9127 25.8919 44.0803 25.892 44.25V65.1852L52.0424 65.1864ZM21.7556 10.3044V19.5744H28.7396V10.3044C28.7396 9.36118 28.3796 8.48518 27.7232 7.83958C27.4003 7.51148 27.0147 7.25159 26.5895 7.07535C26.1642 6.8991 25.7079 6.81008 25.2476 6.81358C24.3217 6.81453 23.4341 7.18274 22.7794 7.83741C22.1247 8.49208 21.7565 9.37973 21.7556 10.3056V10.3044Z" fill="black"/>
</svg>
