<svg width="22" height="22" viewBox="0 0 22 22" fill="none" xmlns="http://www.w3.org/2000/svg">
<path fill-rule="evenodd" clip-rule="evenodd" d="M6.87476 0H15.1248C18.9211 0 21.9998 3.07862 21.9998 6.875V15.125C21.9998 18.9214 18.9211 22 15.1248 22H6.87476C3.07838 22 -0.000244141 18.9214 -0.000244141 15.125V6.875C-0.000244141 3.07862 3.07838 0 6.87476 0ZM15.1248 19.9375C17.7785 19.9375 19.9373 17.7787 19.9373 15.125V6.875C19.9373 4.22125 17.7785 2.0625 15.1248 2.0625H6.87476C4.22101 2.0625 2.06226 4.22125 2.06226 6.875V15.125C2.06226 17.7787 4.22101 19.9375 6.87476 19.9375H15.1248Z" fill="black"/>
<path fill-rule="evenodd" clip-rule="evenodd" d="M5.49976 11C5.49976 7.96263 7.96238 5.5 10.9998 5.5C14.0371 5.5 16.4998 7.96263 16.4998 11C16.4998 14.0374 14.0371 16.5 10.9998 16.5C7.96238 16.5 5.49976 14.0374 5.49976 11ZM7.56226 11C7.56226 12.8948 9.10501 14.4375 10.9998 14.4375C12.8945 14.4375 14.4373 12.8948 14.4373 11C14.4373 9.10388 12.8945 7.5625 10.9998 7.5625C9.10501 7.5625 7.56226 9.10388 7.56226 11Z" fill="black"/>
<circle cx="16.9122" cy="5.08737" r="0.732875" fill="black"/>
</svg>
