<svg width="32" height="32" viewBox="0 0 32 32" fill="none" xmlns="http://www.w3.org/2000/svg">
<path d="M29.2746 16C29.2746 8.66839 23.3312 2.72498 15.9996 2.72498C8.66803 2.72498 2.72461 8.66839 2.72461 16C2.72461 23.3316 8.66803 29.275 15.9996 29.275C23.3312 29.275 29.2746 23.3316 29.2746 16Z" fill="#1E2E33"/>
<path d="M21.9705 10.6562H10.0293C9.8261 10.6563 9.626 10.706 9.4463 10.8008C9.26661 10.8957 9.11275 11.0329 8.99805 11.2006L14.968 15.4338C15.2697 15.6469 15.6299 15.7614 15.9993 15.7614C16.3686 15.7614 16.7289 15.6469 17.0305 15.4338L22.9999 11.2006C22.8854 11.0332 22.7318 10.8961 22.5525 10.8013C22.3732 10.7064 22.1734 10.6566 21.9705 10.6562Z" fill="white"/>
<path d="M17.5474 16.1613C17.0949 16.4817 16.5541 16.6537 15.9996 16.6537C15.4451 16.6537 14.9043 16.4817 14.4518 16.1613L8.7793 12.1394V20.0932C8.7793 20.4247 8.91099 20.7426 9.14541 20.977C9.37983 21.2115 9.69778 21.3432 10.0293 21.3432H21.9705C22.3021 21.3432 22.62 21.2115 22.8544 20.977C23.0889 20.7426 23.2205 20.4247 23.2205 20.0932V12.1394L17.5474 16.1613Z" fill="white"/>
</svg>
