<svg width="24" height="24" viewBox="0 0 24 24" fill="none" xmlns="http://www.w3.org/2000/svg">
<mask id="mask0_95_485" style="mask-type:alpha" maskUnits="userSpaceOnUse" x="0" y="0" width="24" height="24">
<rect width="24" height="24" fill="#D9D9D9"/>
</mask>
<g mask="url(#mask0_95_485)">
<path d="M18.7299 20L16.5198 17.8388C15.8848 18.3624 15.1545 18.7722 14.3289 19.0681C13.5034 19.364 12.6493 19.512 11.7668 19.512C9.59607 19.512 7.7589 18.7615 6.25534 17.2604C4.75178 15.7594 4 13.9252 4 11.7579C4 9.59079 4.75157 7.75598 6.2547 6.25346C7.75784 4.75115 9.59459 4 11.7649 4C13.9351 4 15.7725 4.75073 17.2771 6.25219C18.7815 7.75365 19.5337 9.58826 19.5337 11.756C19.5337 12.6618 19.3815 13.5269 19.0771 14.3513C18.7725 15.1757 18.3662 15.8927 17.8581 16.5023L20 18.7317L18.7299 20ZM11.7668 17.6099C13.4033 17.6099 14.7894 17.0427 15.9251 15.9084C17.0609 14.7744 17.6289 13.3902 17.6289 11.756C17.6289 10.1218 17.0609 8.73765 15.9251 7.60357C14.7894 6.46928 13.4033 5.90214 11.7668 5.90214C10.1303 5.90214 8.74427 6.46928 7.60861 7.60357C6.47273 8.73765 5.9048 10.1218 5.9048 11.756C5.9048 13.3902 6.47273 14.7744 7.60861 15.9084C8.74427 17.0427 10.1303 17.6099 11.7668 17.6099Z" fill="#D7D7D7"/>
</g>
</svg>
