<svg width="24" height="24" viewBox="0 0 24 24" fill="none" xmlns="http://www.w3.org/2000/svg">
<path d="M18 19.2C18 19.8627 17.4627 20.4 16.8 20.4L1.2 20.4C0.537281 20.4 0 19.8627 0 19.2C0 18.5373 0.537281 18 1.2 18L16.8 18C17.4627 18 18 18.5373 18 19.2ZM1.2 13.2L22.8 13.2C23.4627 13.2 24 12.6627 24 12C24 11.3373 23.4627 10.8 22.8 10.8L1.2 10.8C0.537281 10.8 0 11.3373 0 12C0 12.6627 0.537281 13.2 1.2 13.2ZM1.2 5.99999L12 5.99999C12.6627 5.99999 13.2 5.46271 13.2 4.79999C13.2 4.13732 12.6627 3.59999 12 3.59999L1.2 3.59999C0.537281 3.59999 0 4.13732 0 4.79999C0 5.46271 0.537281 5.99999 1.2 5.99999Z" fill="black"/>
</svg>
