<svg width="22" height="18" viewBox="0 0 22 18" fill="none" xmlns="http://www.w3.org/2000/svg">
<path d="M21.9998 2.11613C21.1816 2.475 20.3099 2.71288 19.401 2.82838C20.336 2.27013 21.0496 1.39287 21.3851 0.3355C20.5134 0.85525 19.5509 1.22238 18.5251 1.42725C17.6974 0.545875 16.5176 0 15.2306 0C12.7336 0 10.7234 2.02675 10.7234 4.51137C10.7234 4.86888 10.7536 5.21263 10.8279 5.53988C7.07826 5.357 3.76038 3.55988 1.53151 0.82225C1.14238 1.49738 0.914131 2.27012 0.914131 3.102C0.914131 4.664 1.71851 6.04862 2.91751 6.85025C2.19288 6.8365 1.48201 6.62613 0.879756 6.29475C0.879756 6.3085 0.879756 6.32638 0.879756 6.34425C0.879756 8.536 2.44313 10.3565 4.49326 10.7759C4.12613 10.8763 3.72601 10.9244 3.31076 10.9244C3.02201 10.9244 2.73051 10.9079 2.45688 10.8474C3.04126 12.6335 4.69951 13.9466 6.67126 13.9893C5.13676 15.1896 3.18838 15.9129 1.07913 15.9129C0.709256 15.9129 0.354506 15.8964 -0.000244141 15.851C1.99763 17.1394 4.36538 17.875 6.91876 17.875C15.2183 17.875 19.7558 11 19.7558 5.04075C19.7558 4.84137 19.7489 4.64887 19.7393 4.45775C20.6344 3.8225 21.3865 3.02913 21.9998 2.11613Z" fill="black"/>
</svg>
